<?xml version="1.0" standalone="no"?><!DOCTYPE svg PUBLIC "-//W3C//DTD SVG 1.1//EN" "http://www.w3.org/Graphics/SVG/1.1/DTD/svg11.dtd" [<!ENTITY nbsp " ">]><svg data-noselect="" viewBox="102.15693238971701 123.039449908465 400 300" width="400" ref="svg_canvas" height="300" preserveAspectRatio="none" version="1.1" xmlns="http://www.w3.org/2000/svg" style="background: #ffffff;"><g id="shape_SBMcfnUY24" ref="shape_SBMcfnUY24" key="shape_SBMcfnUY24" transform="translate(265.67749023438,218.88186307377) rotate(0,23.190538113872,11.935908340078) scale(1,1)" style="cursor:move;display:inline;opacity:1;" filter="">
            <g style="display:inline"><rect fill="rgba(0,0,0,0)" width="66.381076227744" height="43.871816680156" x="-10" y="-10"></rect><svg version="1.1" id="图层_1" xmlns="http://www.w3.org/2000/svg" xmlns:xlink="http://www.w3.org/1999/xlink" x="0px" y="0px" width="46.381076227744" height="23.871816680156" viewBox="7.779007911682129 70.97251892089844 172 51.812477111816406" enable-background="new 0 0 200 200" xml:space="preserve" preserveAspectRatio="none" data-parent="shape_SBMcfnUY24">
<g>
	<path fill="#1D2088" d="M179.779,77.685v21.88c-18.78-9.41-46.19-16.08-85.88,7.6c-19.92,11.88-37.98,15.62-52.83,15.62
		c-8.42,0-15.81-1.2-21.92-2.81c-4.18-1.1-7.98-2.44-11.37-3.86v-22.22c11.44,6.76,39.29,17.92,75.87-3.91
		C125.6,64.965,157.64,68.935,179.779,77.685z"></path>
</g>
</svg></g>
        </g><g id="shape_KAhvQTuVP1" ref="shape_KAhvQTuVP1" key="shape_KAhvQTuVP1" transform="translate(300.84252518499,218.88186307377) rotate(0,23.190538113872,11.935908340078) scale(1,1)" style="cursor:move;display:inline;opacity:1;" filter="">
            <g style="display:inline"><rect fill="rgba(0,0,0,0)" width="66.381076227744" height="43.871816680156" x="-10" y="-10"></rect><svg version="1.1" id="图层_1" xmlns="http://www.w3.org/2000/svg" xmlns:xlink="http://www.w3.org/1999/xlink" x="0px" y="0px" width="46.381076227744" height="23.871816680156" viewBox="7.779007911682129 70.97251892089844 172 51.812477111816406" enable-background="new 0 0 200 200" xml:space="preserve" preserveAspectRatio="none" data-parent="shape_KAhvQTuVP1">
<g>
	<path fill="#1D2088" d="M179.779,77.685v21.88c-18.78-9.41-46.19-16.08-85.88,7.6c-19.92,11.88-37.98,15.62-52.83,15.62
		c-8.42,0-15.81-1.2-21.92-2.81c-4.18-1.1-7.98-2.44-11.37-3.86v-22.22c11.44,6.76,39.29,17.92,75.87-3.91
		C125.6,64.965,157.64,68.935,179.779,77.685z"></path>
</g>
</svg></g>
        </g><g id="shape_oOLQPGqh5Q" ref="shape_oOLQPGqh5Q" key="shape_oOLQPGqh5Q" transform="translate(257.09027569993,245.75367736816) rotate(0,190.225,25) scale(1,1)" style="cursor:move;display:inline;opacity:1;" filter="">
            <g style="display:inline"><svg xmlns="http://www.w3.org/2000/svg" version="1.1" xmlns:xlink="http://www.w3.org/1999/xlink" width="52" height="56.421875" viewBox="0 0 52 56.421875" preserveAspectRatio="none" data-parent="shape_oOLQPGqh5Q"><rect fill="rgba(0,0,0,0)" width="52" height="56.421875"></rect><g data-width="51.46484375" transform=""><path d="M13.13-19.92L9.52-19.92L9.52-24.71L20.70-24.71L20.70-31.01L2.34-31.01L2.34-13.67L14.16-13.67Q14.79-13.57 14.84-12.99L14.84-12.99L14.84-6.98Q14.75-6.35 14.16-6.30L14.16-6.30L2.20-6.30L2.20 0L13.13 0.24Q19.63 0.39 21.53-4.25L21.53-4.25Q22.17-5.86 22.17-7.81L22.17-7.81L22.17-11.72Q22.17-17.53 17.24-19.29L17.24-19.29Q15.43-19.92 13.13-19.92L13.13-19.92Z" transform="translate(0 41) " fill="rgb(29, 32, 136)" stroke="rgb(29, 32, 136)" stroke-linecap="square" stroke-linejoin="square" stroke-width="0.083" data-glyph-w="24.365234375" data-glyph-h="54.78515625" data-glyph-ascender="41.2109375" data-glyph-descender="-13.57421875"></path><path d="M11.47 0.49L16.11 0.49Q24.85 0.39 24.90-7.32L24.90-7.32L24.90-17.48L14.65-17.48L14.65-11.47L18.07-11.47L18.07-6.69Q17.97-6.05 17.38-6.01L17.38-6.01L10.69-6.01Q10.06-6.10 10.01-6.69L10.01-6.69L10.01-24.32Q10.11-24.95 10.69-25L10.69-25L24.27-25L24.27-31.49L11.47-31.49Q2.73-31.40 2.69-23.68L2.69-23.68L2.69-7.32Q2.78 0.44 11.47 0.49L11.47 0.49Z" transform="translate(24.365234375 41) " fill="rgb(29, 32, 136)" stroke="rgb(29, 32, 136)" stroke-linecap="square" stroke-linejoin="square" stroke-width="0.083" data-glyph-w="27.099609375" data-glyph-h="54.78515625" data-glyph-ascender="41.2109375" data-glyph-descender="-13.57421875"></path></g></svg></g>
        </g><g id="shape_JqSkQERSZZ" ref="shape_JqSkQERSZZ" key="shape_JqSkQERSZZ" transform="translate(257.0902633667,302.17555236816) rotate(0,110.92578125,12.5107421875) scale(1,1)" style="cursor:move;display:inline;opacity:1;" filter="">
            <g style="display:inline"><svg xmlns="http://www.w3.org/2000/svg" version="1.1" xmlns:xlink="http://www.w3.org/1999/xlink" width="82" height="25.021484375" viewBox="0 0 82 25.021484375" preserveAspectRatio="none" data-parent="shape_JqSkQERSZZ"><rect fill="rgba(0,0,0,0)" width="82" height="25.021484375"></rect><g data-width="81.662109375" transform=""><path d="M6.28 0L4.25 0L0.26-15.03L2.30-15.03L4.58-5.18Q4.95-3.63 5.22-2.10L5.22-2.10Q5.79-4.51 5.90-4.88L5.90-4.88L8.76-15.03L11.16-15.03L13.31-7.42Q14.12-4.59 14.48-2.10L14.48-2.10Q14.77-3.53 15.23-5.37L15.23-5.37L17.59-15.03L19.58-15.03L15.46 0L13.55 0L10.38-11.45Q9.98-12.89 9.91-13.22L9.91-13.22Q9.67-12.18 9.46-11.45L9.46-11.45L6.28 0Z" transform="translate(0 19) " fill="rgb(29, 32, 136)" stroke="rgb(29, 32, 136)" stroke-linecap="square" stroke-linejoin="square" stroke-width="0.035" data-glyph-w="19.82080078125" data-glyph-h="23.4609375" data-glyph-ascender="19.0107421875" data-glyph-descender="-4.4501953125"></path><path d="M12.88 0L1.66 0L1.66-15.03L12.53-15.03L12.53-13.26L3.65-13.26L3.65-8.65L11.97-8.65L11.97-6.89L3.65-6.89L3.65-1.77L12.88-1.77L12.88 0Z" transform="translate(19.82080078125 19) " fill="rgb(29, 32, 136)" stroke="rgb(29, 32, 136)" stroke-linecap="square" stroke-linejoin="square" stroke-width="0.035" data-glyph-w="14.0068359375" data-glyph-h="23.4609375" data-glyph-ascender="19.0107421875" data-glyph-descender="-4.4501953125"></path><path d="M13.01-1.61L13.01-1.61Q14.40-0.66 15.57-0.22L15.57-0.22L14.98 1.17Q13.36 0.58 11.75-0.68L11.75-0.68Q10.08 0.26 8.06 0.26L8.06 0.26Q6.02 0.26 4.36-0.73Q2.70-1.71 1.80-3.50Q0.90-5.28 0.90-7.52L0.90-7.52Q0.90-9.74 1.80-11.57Q2.71-13.39 4.37-14.35Q6.04-15.30 8.10-15.30L8.10-15.30Q10.18-15.30 11.85-14.31Q13.52-13.32 14.40-11.54Q15.28-9.76 15.28-7.53L15.28-7.53Q15.28-5.67 14.71-4.19Q14.15-2.71 13.01-1.61ZM8.15-2.71L8.63-4.15Q10.36-3.67 11.47-2.72L11.47-2.72Q13.23-4.32 13.23-7.53L13.23-7.53Q13.23-9.35 12.61-10.72Q11.99-12.08 10.79-12.83Q9.60-13.59 8.11-13.59L8.11-13.59Q5.89-13.59 4.42-12.06Q2.95-10.54 2.95-7.52L2.95-7.52Q2.95-4.58 4.40-3.01Q5.85-1.45 8.11-1.45L8.11-1.45Q9.18-1.45 10.12-1.85L10.12-1.85Q9.19-2.45 8.15-2.71L8.15-2.71Z" transform="translate(33.82763671875 19) " fill="rgb(29, 32, 136)" stroke="rgb(29, 32, 136)" stroke-linecap="square" stroke-linejoin="square" stroke-width="0.035" data-glyph-w="16.33447265625" data-glyph-h="23.4609375" data-glyph-ascender="19.0107421875" data-glyph-descender="-4.4501953125"></path><path d="M13.01-1.61L13.01-1.61Q14.40-0.66 15.57-0.22L15.57-0.22L14.98 1.17Q13.36 0.58 11.75-0.68L11.75-0.68Q10.08 0.26 8.06 0.26L8.06 0.26Q6.02 0.26 4.36-0.73Q2.70-1.71 1.80-3.50Q0.90-5.28 0.90-7.52L0.90-7.52Q0.90-9.74 1.80-11.57Q2.71-13.39 4.37-14.35Q6.04-15.30 8.10-15.30L8.10-15.30Q10.18-15.30 11.85-14.31Q13.52-13.32 14.40-11.54Q15.28-9.76 15.28-7.53L15.28-7.53Q15.28-5.67 14.71-4.19Q14.15-2.71 13.01-1.61ZM8.15-2.71L8.63-4.15Q10.36-3.67 11.47-2.72L11.47-2.72Q13.23-4.32 13.23-7.53L13.23-7.53Q13.23-9.35 12.61-10.72Q11.99-12.08 10.79-12.83Q9.60-13.59 8.11-13.59L8.11-13.59Q5.89-13.59 4.42-12.06Q2.95-10.54 2.95-7.52L2.95-7.52Q2.95-4.58 4.40-3.01Q5.85-1.45 8.11-1.45L8.11-1.45Q9.18-1.45 10.12-1.85L10.12-1.85Q9.19-2.45 8.15-2.71L8.15-2.71Z" transform="translate(50.162109375 19) " fill="rgb(29, 32, 136)" stroke="rgb(29, 32, 136)" stroke-linecap="square" stroke-linejoin="square" stroke-width="0.035" data-glyph-w="16.33447265625" data-glyph-h="23.4609375" data-glyph-ascender="19.0107421875" data-glyph-descender="-4.4501953125"></path><path d="M3.64 0L1.65 0L1.65-15.03L8.32-15.03Q10.33-15.03 11.37-14.63Q12.42-14.22 13.04-13.20Q13.67-12.17 13.67-10.93L13.67-10.93Q13.67-9.33 12.63-8.23Q11.60-7.14 9.43-6.84L9.43-6.84Q10.22-6.46 10.63-6.09L10.63-6.09Q11.50-5.29 12.28-4.09L12.28-4.09L14.90 0L12.40 0L10.41-3.13Q9.54-4.48 8.97-5.20Q8.41-5.92 7.96-6.20Q7.52-6.49 7.05-6.60L7.05-6.60Q6.72-6.68 5.95-6.68L5.95-6.68L3.64-6.68L3.64 0ZM3.64-13.37L3.64-8.40L7.92-8.40Q9.28-8.40 10.05-8.68Q10.82-8.96 11.22-9.58Q11.62-10.20 11.62-10.93L11.62-10.93Q11.62-12.00 10.84-12.68Q10.07-13.37 8.40-13.37L8.40-13.37L3.64-13.37Z" transform="translate(66.49658203125 19) " fill="rgb(29, 32, 136)" stroke="rgb(29, 32, 136)" stroke-linecap="square" stroke-linejoin="square" stroke-width="0.035" data-glyph-w="15.16552734375" data-glyph-h="23.4609375" data-glyph-ascender="19.0107421875" data-glyph-descender="-4.4501953125"></path></g></svg></g>
        </g></svg>